<svg width="1500" height="500" viewBox="0 0 1500 500" fill="none" xmlns="http://www.w3.org/2000/svg">
<path d="M582.606 403.402C585.375 403.402 587.66 404.372 589.598 406.31C591.537 408.248 592.506 410.602 592.506 413.302V447.637H557.407C554.638 447.637 552.354 446.668 550.415 444.73C548.477 442.792 547.508 440.438 547.508 437.738V421.401H584.268V413.302C584.268 412.817 584.129 412.471 583.783 412.125C583.437 411.779 583.091 411.64 582.606 411.64H547.508V403.402H582.606ZM584.268 439.4V429.639H555.746V437.738C555.746 438.223 555.884 438.569 556.23 438.915C556.576 439.261 556.923 439.4 557.407 439.4H584.268ZM663.672 403.402H672.464L655.85 447.637H649.135L634.251 414.755L620.197 447.637L620.059 447.568L620.128 447.637H613.482L596.106 403.402H604.829L616.805 432.754L629.543 403.402H638.958L652.458 432.754L663.672 403.402ZM710.194 403.402C712.963 403.402 715.247 404.372 717.186 406.31C719.124 408.248 720.093 410.602 720.093 413.302V429.639H683.333V437.738C683.333 438.223 683.472 438.569 683.818 438.915C684.164 439.261 684.51 439.4 684.995 439.4H720.093V447.637H684.995C682.226 447.637 679.941 446.668 678.003 444.73C676.064 442.792 675.095 440.438 675.095 437.738V413.302C675.095 410.533 676.064 408.248 678.003 406.31C679.941 404.372 682.295 403.402 684.995 403.402H710.194ZM683.333 421.401H711.855V413.302C711.855 412.817 711.717 412.471 711.371 412.125C711.025 411.779 710.678 411.64 710.194 411.64H684.995C684.51 411.64 684.164 411.779 683.818 412.125C683.472 412.471 683.333 412.817 683.333 413.302V421.401ZM772.638 413.371V415.032H764.399V413.371C764.399 412.886 764.261 412.54 763.915 412.194C763.569 411.848 763.223 411.709 762.738 411.709H737.539C737.054 411.709 736.708 411.848 736.362 412.194C736.016 412.54 735.877 412.886 735.877 413.371V419.809C735.877 420.293 736.016 420.64 736.362 420.986C736.708 421.332 737.054 421.47 737.539 421.47H762.738C765.507 421.47 767.792 422.439 769.73 424.378C771.668 426.316 772.638 428.67 772.638 431.369V437.807C772.638 440.576 771.668 442.861 769.73 444.799C767.792 446.738 765.438 447.707 762.738 447.707H737.539C734.77 447.707 732.485 446.738 730.547 444.799C728.609 442.861 727.639 440.507 727.639 437.807V436.146H735.877V437.807C735.877 438.292 736.016 438.638 736.362 438.984C736.708 439.33 737.054 439.469 737.539 439.469H762.738C763.223 439.469 763.569 439.33 763.915 438.984C764.261 438.638 764.399 438.292 764.399 437.807V431.369C764.399 430.885 764.261 430.539 763.915 430.193C763.569 429.847 763.223 429.708 762.738 429.708H737.539C734.77 429.708 732.485 428.739 730.547 426.801C728.609 424.862 727.639 422.509 727.639 419.809V413.371C727.639 410.602 728.609 408.317 730.547 406.379C732.485 404.441 734.839 403.472 737.539 403.472H762.738C765.507 403.472 767.792 404.441 769.73 406.379C771.668 408.248 772.638 410.602 772.638 413.371ZM790.083 403.402H815.282C818.051 403.402 820.336 404.372 822.274 406.31C824.213 408.248 825.182 410.602 825.182 413.302V437.738C825.182 440.507 824.213 442.792 822.274 444.73C820.336 446.668 817.982 447.637 815.282 447.637H790.083C787.314 447.637 785.03 446.668 783.091 444.73C781.153 442.792 780.184 440.438 780.184 437.738V413.302C780.184 410.533 781.153 408.248 783.091 406.31C785.03 404.372 787.383 403.402 790.083 403.402ZM815.282 411.64H790.083C789.599 411.64 789.252 411.779 788.906 412.125C788.56 412.471 788.422 412.817 788.422 413.302V437.738C788.422 438.223 788.56 438.569 788.906 438.915C789.252 439.261 789.599 439.4 790.083 439.4H815.282C815.767 439.4 816.113 439.261 816.459 438.915C816.805 438.569 816.944 438.223 816.944 437.738V413.302C816.944 412.817 816.805 412.471 816.459 412.125C816.113 411.848 815.767 411.64 815.282 411.64ZM889.703 403.402C892.472 403.402 894.756 404.372 896.695 406.31C898.633 408.248 899.602 410.602 899.602 413.302V447.637H891.433V413.302C891.433 412.817 891.295 412.471 890.949 412.125C890.602 411.779 890.187 411.64 889.703 411.64H872.257C871.772 411.64 871.426 411.779 871.08 412.125C870.734 412.471 870.596 412.817 870.596 413.302V447.637H862.357V413.302C862.357 412.817 862.219 412.471 861.873 412.125C861.527 411.779 861.181 411.64 860.696 411.64H843.181C842.697 411.64 842.35 411.779 842.004 412.125C841.658 412.471 841.52 412.817 841.52 413.302V447.637H833.282V403.402H889.703ZM942.662 403.402C945.431 403.402 947.716 404.372 949.654 406.31C951.593 408.248 952.562 410.602 952.562 413.302V429.639H915.802V437.738C915.802 438.223 915.94 438.569 916.286 438.915C916.632 439.261 916.978 439.4 917.463 439.4H952.562V447.637H917.463C914.694 447.637 912.409 446.668 910.471 444.73C908.533 442.792 907.563 440.438 907.563 437.738V413.302C907.563 410.533 908.533 408.248 910.471 406.31C912.409 404.372 914.763 403.402 917.463 403.402H942.662ZM915.802 421.401H944.324V413.302C944.324 412.817 944.185 412.471 943.839 412.125C943.493 411.779 943.147 411.64 942.662 411.64H917.463C916.978 411.64 916.632 411.779 916.286 412.125C915.94 412.471 915.802 412.817 915.802 413.302V421.401Z" fill="#494368"/>
<path d="M952.493 215.04L848.65 119.785L834.043 135.707L920.578 215.04H579.491L666.026 135.638L651.419 119.716L547.577 215.04H547.508V277.827C547.508 306.21 574.853 329.331 608.428 329.331H672.464C706.04 329.331 733.385 306.21 733.385 277.827V236.569H766.615V277.827C766.615 306.21 793.96 329.331 827.536 329.331H891.572C925.147 329.331 952.493 306.21 952.493 277.827V215.04Z" fill="#FC60A8"/>
<path d="M871.191 155.871C879.64 135.35 879.64 93.6573 868.592 61.7363C865.667 55.8733 856.893 57.8276 856.568 64.0164V66.2964C854.618 96.9145 843.569 113.526 826.996 121.67C824.396 122.973 820.172 122.973 817.247 121.018C797.749 108.641 774.352 101.475 749.329 101.475C724.307 101.475 701.234 108.966 681.412 121.018C678.812 122.647 675.562 122.973 672.963 121.67C656.064 115.481 644.366 96.9145 642.416 65.9707V63.6907C642.416 57.5019 633.317 55.5475 630.717 61.4106C619.668 93.983 619.993 135.676 628.117 155.871C632.342 165.968 632.342 177.368 628.767 187.792C624.218 200.821 621.943 215.478 622.268 230.136C623.893 297.235 680.762 354.563 748.029 355.54C818.872 356.843 876.391 299.841 876.391 228.507C876.391 214.175 874.116 200.821 869.891 188.117C866.642 177.694 866.967 165.968 871.191 155.871ZM747.705 325.573C696.36 324.27 653.79 282.252 653.14 230.462C651.84 175.414 696.685 130.464 751.279 131.767C802.949 132.419 845.194 175.088 846.169 226.879C847.144 281.6 802.624 326.225 747.705 325.573Z" fill="#102954"/>
<path d="M764.277 218.084L741.53 182.906C737.955 177.043 730.481 175.414 724.632 178.997C721.057 181.277 718.782 185.186 718.782 189.42C718.782 191.7 719.432 193.98 720.732 195.935L736.005 220.038C737.305 221.993 736.655 224.273 735.68 225.901L711.633 252.285C707.084 257.171 707.408 264.988 712.283 269.548C714.558 271.503 717.807 272.48 720.732 272.48C724.307 272.48 727.231 270.851 729.506 268.571L747.379 247.725C749.004 246.096 751.279 246.096 752.254 248.051L764.927 266.291C765.577 267.92 766.877 268.897 768.502 269.874C772.727 272.806 778.251 272.806 782.475 270.2C786.05 267.92 788.325 264.011 788.325 259.777C788.325 257.497 787.675 255.217 786.375 253.262L764.277 218.084Z" fill="#102954"/>
<path d="M952.493 215.04H920.578H579.491H547.577H547.508V277.827C547.508 306.21 574.853 329.331 608.428 329.331H672.464C706.04 329.331 733.385 306.21 733.385 277.827V236.569H766.615V277.827C766.615 306.21 793.96 329.331 827.536 329.331H891.572C925.147 329.331 952.493 306.21 952.493 277.827V215.04Z" fill="#FC60A8"/>
<mask id="mask0" mask-type="alpha" maskUnits="userSpaceOnUse" x="547" y="215" width="406" height="115">
<path d="M952.493 215.04H920.578H579.491H547.577H547.508V277.827C547.508 306.21 574.853 329.331 608.428 329.331H672.464C706.04 329.331 733.385 306.21 733.385 277.827V236.569H766.615V277.827C766.615 306.21 793.96 329.331 827.536 329.331H891.572C925.147 329.331 952.493 306.21 952.493 277.827V215.04Z" fill="#FC60A8"/>
</mask>
<g mask="url(#mask0)">
<line y1="-40" x2="469.343" y2="-40" transform="matrix(-0.442501 0.896768 -0.896781 -0.442474 708.848 36.3684)" stroke="#FFD8EA" stroke-width="80"/>
<path d="M950.679 84.1056L742.994 504.997" stroke="#FFD8EA" stroke-width="80"/>
</g>
</svg>
